# xmcd
#
# Track frame offsets: 
#        150
#        13832
#        26825
#        39178
#        49924
#        64968
#        77261
#        87332
#        98135
#        109310
#        119109
#        128901
#        139536
#        152489
#        161875
#        173153
#
# Disc length: 2447 seconds
#
# Revision: 0
# Processed by: cddbd v1.5.2PL0 Copyright (c) Steve Scherf et al.
# Submitted via: ExactAudioCopy v0.99pb4
#
DISCID=d4098d10
DTITLE=Etta James - Live And In The Studio [CD2)
DYEAR=2009
DGENRE=Blues
TTITLE0=The Wallflower (Dance With Me Henry)
TTITLE1=Hey! Henry
TTITLE2=Be Mine
TTITLE3=Good Rockin' Daddy
TTITLE4=Crazy Feeling (Doin' Somethin' Crazy)
TTITLE5=W-O-M-A-N
TTITLE6=That's All
TTITLE7=Number One (My One And Only)
TTITLE8=Tears Of Joy
TTITLE9=Tough Lover
TTITLE10=Good Lookin'
TTITLE11=The Pick-Up
TTITLE12=Market Place
TTITLE13=Come What May
TTITLE14=Strange Things Happening
TTITLE15=Every Night (Baby, Baby, Every Night)
EXTD=
EXTT0=
EXTT1=
EXTT2=
EXTT3=
EXTT4=
EXTT5=
EXTT6=
EXTT7=
EXTT8=
EXTT9=
EXTT10=
EXTT11=
EXTT12=
EXTT13=
EXTT14=
EXTT15=
PLAYORDER=
